<svg width="11" height="12" viewBox="0 0 11 12" fill="none" xmlns="http://www.w3.org/2000/svg">
<circle cx="5.5" cy="5.5" r="5.5" fill="#34B5B8"/>
<path d="M2.72266 1.89062H5.2373C5.77767 1.89062 6.23828 1.97201 6.61914 2.13477C7 2.29753 7.29134 2.53841 7.49316 2.85742C7.69824 3.17318 7.80078 3.5638 7.80078 4.0293C7.80078 4.38411 7.73568 4.69661 7.60547 4.9668C7.47526 5.23698 7.29134 5.46484 7.05371 5.65039C6.81608 5.83268 6.53288 5.97428 6.2041 6.0752L5.83301 6.25586H3.57227L3.5625 5.28418H5.25684C5.5498 5.28418 5.79395 5.2321 5.98926 5.12793C6.18457 5.02376 6.33105 4.88216 6.42871 4.70312C6.52962 4.52083 6.58008 4.31576 6.58008 4.08789C6.58008 3.84049 6.53125 3.62565 6.43359 3.44336C6.33919 3.25781 6.19271 3.11621 5.99414 3.01855C5.79557 2.91764 5.54329 2.86719 5.2373 2.86719H3.94824V9H2.72266V1.89062ZM6.78027 9L5.11035 5.80664L6.39453 5.80176L8.08887 8.93652V9H6.78027Z" fill="white"/>
</svg>
